<svg aria-hidden="true" style="position: absolute; width: 0; height: 0; overflow: hidden;" version="1.1" xmlns="http://www.w3.org/2000/svg" xmlns:xlink="http://www.w3.org/1999/xlink">
<defs>
<symbol id="icon-menu-burger-small" viewBox="0 0 32 32">
<path stroke-linejoin="round" stroke-linecap="round" stroke-miterlimit="4" stroke-width="3" d="M5.333 8h21.334M5.333 16h10.667M5.334 24h21.333"></path>
</symbol>
<symbol id="icon-menu-burger-big" viewBox="0 0 32 32">
<path stroke-linejoin="round" stroke-linecap="round" stroke-miterlimit="4" stroke-width="3.2" d="M5.334 8h21.333M5.334 16h10.666M5.333 24h21.334"></path>
</symbol>
<symbol id="icon-logo-icon" viewBox="0 0 32 32">
<path d="M29.083 0.315h-4.011c-1.236 0-2.24 0.981-2.24 2.194v3.929c0 1.214 1.004 2.197 2.24 2.197h4.011c1.237 0 2.24-0.983 2.24-2.196v-3.929c0-1.214-1.003-2.196-2.24-2.196zM6.731 23.040h-4.318c-1.333 0-2.412 0.983-2.412 2.196v3.929c0 1.212 1.081 2.196 2.412 2.196h4.318c1.333 0 2.412-0.983 2.412-2.196v-3.929c0-1.212-1.081-2.196-2.412-2.196zM6.249 11.582h-4.009c-1.237 0-2.24 0.983-2.24 2.196v3.929c0 1.212 1.003 2.196 2.24 2.196h4.009c1.237 0 2.24-0.983 2.24-2.196v-3.929c0-1.212-1.003-2.196-2.24-2.196zM17.765 22.978h-4.009c-1.237 0-2.24 0.983-2.24 2.196v3.929c0 1.212 1.003 2.196 2.24 2.196h4.009c1.237 0 2.24-0.983 2.24-2.196v-3.929c0-1.212-1.003-2.196-2.24-2.196zM6.249 0.087h-4.009c-1.237 0-2.24 0.98-2.24 2.194v3.929c0 1.216 1.003 2.199 2.24 2.199h4.009c1.237 0 2.24-0.983 2.24-2.196v-3.929c0.002-1.218-1.001-2.199-2.238-2.199zM18.076 11.698h-4.011c-1.237 0-2.24 0.983-2.24 2.196v3.929c0 1.212 1.004 2.196 2.24 2.196h4.011c1.237 0 2.24-0.983 2.24-2.196v-3.929c0-1.212-1.003-2.196-2.24-2.196zM29.333 22.978h-4.009c-1.237 0-2.24 0.983-2.24 2.196v3.929c0 1.212 1.003 2.196 2.24 2.196h4.009c1.237 0 2.24-0.983 2.24-2.196v-3.929c0-1.212-1.003-2.196-2.24-2.196zM17.591 0.224h-4.011c-1.237 0-2.24 0.983-2.24 2.196v3.929c0 1.212 1.004 2.196 2.24 2.196h4.011c1.237 0 2.24-0.983 2.24-2.196v-3.931c0-1.212-1.003-2.196-2.24-2.196zM29.044 11.925h-4.009c-1.237 0-2.24 0.983-2.24 2.196v3.929c0 1.212 1.003 2.196 2.24 2.196h4.009c1.237 0 2.24-0.983 2.24-2.196v-3.929c0-1.212-1.003-2.196-2.24-2.196z"></path>
</symbol>
<symbol id="icon-cross-small" viewBox="0 0 32 32">
<path stroke-linejoin="round" stroke-linecap="round" stroke-miterlimit="4" stroke-width="3" d="M24 8l-16 16M8 8l16 16"></path>
</symbol>
<symbol id="icon-cross-big" viewBox="0 0 32 32">
<path stroke-linejoin="round" stroke-linecap="round" stroke-miterlimit="4" stroke-width="3.2" d="M24 8l-16 16M8 8l16 16"></path>
</symbol>
</defs>
</svg>
