<svg aria-hidden="true" style="position: absolute; width: 0; height: 0; overflow: hidden;" version="1.1" xmlns="http://www.w3.org/2000/svg" xmlns:xlink="http://www.w3.org/1999/xlink">
<defs>
<symbol id="icon-menu-burger-small" viewBox="0 0 42 32">
<path stroke="#fbfbfb" stroke-linejoin="round" stroke-linecap="round" stroke-miterlimit="4" stroke-width="3" d="M5.333 8h21.334M5.333 16h10.667M5.334 24h21.333"></path>
</symbol>
<symbol id="icon-logo-icon" viewBox="0 0 32 32">
<path fill="#fbfbfb" d="M29.083 0.315h-4.011c-1.236 0-2.24 0.981-2.24 2.194v3.929c0 1.214 1.004 2.197 2.24 2.197h4.011c1.237 0 2.24-0.983 2.24-2.196v-3.929c0-1.214-1.003-2.196-2.24-2.196zM6.731 23.040h-4.318c-1.333 0-2.412 0.983-2.412 2.196v3.929c0 1.212 1.081 2.196 2.412 2.196h4.318c1.333 0 2.412-0.983 2.412-2.196v-3.929c0-1.212-1.081-2.196-2.412-2.196zM6.249 11.582h-4.009c-1.237 0-2.24 0.983-2.24 2.196v3.929c0 1.212 1.003 2.196 2.24 2.196h4.009c1.237 0 2.24-0.983 2.24-2.196v-3.929c0-1.212-1.003-2.196-2.24-2.196zM17.765 22.978h-4.009c-1.237 0-2.24 0.983-2.24 2.196v3.929c0 1.212 1.003 2.196 2.24 2.196h4.009c1.237 0 2.24-0.983 2.24-2.196v-3.929c0-1.212-1.003-2.196-2.24-2.196zM6.249 0.087h-4.009c-1.237 0-2.24 0.98-2.24 2.194v3.929c0 1.216 1.003 2.199 2.24 2.199h4.009c1.237 0 2.24-0.983 2.24-2.196v-3.929c0.002-1.218-1.001-2.199-2.238-2.199zM18.076 11.698h-4.011c-1.237 0-2.24 0.983-2.24 2.196v3.929c0 1.212 1.004 2.196 2.24 2.196h4.011c1.237 0 2.24-0.983 2.24-2.196v-3.929c0-1.212-1.003-2.196-2.24-2.196zM29.333 22.978h-4.009c-1.237 0-2.24 0.983-2.24 2.196v3.929c0 1.212 1.003 2.196 2.24 2.196h4.009c1.237 0 2.24-0.983 2.24-2.196v-3.929c0-1.212-1.003-2.196-2.24-2.196zM17.591 0.224h-4.011c-1.237 0-2.24 0.983-2.24 2.196v3.929c0 1.212 1.004 2.196 2.24 2.196h4.011c1.237 0 2.24-0.983 2.24-2.196v-3.931c0-1.212-1.003-2.196-2.24-2.196zM29.044 11.925h-4.009c-1.237 0-2.24 0.983-2.24 2.196v3.929c0 1.212 1.003 2.196 2.24 2.196h4.009c1.237 0 2.24-0.983 2.24-2.196v-3.929c0-1.212-1.003-2.196-2.24-2.196z"></path>
</symbol>
<symbol id="icon-GreenHarvest" viewBox="0 0 389 32">
<path fill="#fbfbfb" d="M16.803 32C6.702 32 0 25.728 0 15.957 0 6.4 6.606 0 16.563 0 24.94 0 30.828 4.395 31.69 11.008h-6.941c-.67-3.797-3.878-5.931-8.186-5.931-6.032 0-9.622 4.352-9.622 10.88 0 7.168 4.021 10.965 9.861 10.965 5.074 0 8.329-2.56 8.665-6.4v-.427h-9.335v-4.779h15.797v3.925c-.287 7.637-6.319 12.757-15.127 12.757zM36.115 31.573V.426h16.802c8.569 0 11.968 3.712 11.968 9.088 0 4.821-3.83 7.125-8.282 7.68v.128c2.872.64 4.165 2.048 5.362 4.821 1.532 3.499 1.771 7.68 3.734 9.173v.256H58.04c-1.627-1.451-2.01-6.016-2.872-8.789-.862-2.859-2.729-3.2-6.223-3.2h-6.127v11.989h-6.702zm6.702-16.938H52.2c3.925 0 5.744-2.048 5.744-4.693 0-2.901-2.25-4.565-5.744-4.565h-9.383v9.259zM69.336 31.573V.426h23.887v4.949H76.037v7.424h15.51v4.949h-15.51v8.747h17.425v5.077H69.335zM98.116 31.573V.426h23.887v4.949h-17.186v7.424h15.51v4.949h-15.51v8.747h17.425v5.077H98.115zM126.897 31.573V.426h8.138l11.585 17.195c3.542 5.205 3.973 6.912 3.973 6.912h.143L150.64.426h6.702v31.147h-8.186l-12.015-17.707c-2.729-4.011-3.447-6.443-3.447-6.443h-.096v24.149h-6.702zM162.384 31.573v-6.315h6.989v6.315h-6.989zM174.406 31.573V.426h6.702v12.459h16.037V.426h6.702v31.147h-6.702V17.834h-16.037v13.739h-6.702zM206.711 31.573 220.115.426h7.276l13.595 31.147h-7.181l-2.824-7.168h-14.505l-2.824 7.168h-6.941zm11.68-12.117h10.675l-3.111-7.68c-2.154-5.675-2.202-6.699-2.202-6.699h-.096s0 1.024-2.154 6.699l-3.111 7.68zM243.841 31.573V.426h16.803c8.57 0 11.967 3.712 11.967 9.088 0 4.821-3.829 7.125-8.281 7.68v.128c2.873.64 4.164 2.048 5.361 4.821 1.533 3.499 1.771 7.68 3.733 9.173v.256h-7.658c-1.627-1.451-2.011-6.016-2.872-8.789-.862-2.859-2.729-3.2-6.223-3.2h-6.127v11.989h-6.702zm6.702-16.938h9.382c3.926 0 5.745-2.048 5.745-4.693 0-2.901-2.25-4.565-5.745-4.565h-9.382v9.259zM284.168 31.573 271.339.426h7.181s6.941 17.451 7.659 19.584c1.149 3.413 1.675 5.163 1.675 5.163h.096c-.048 0 .48-1.749 1.675-5.163.768-2.133 7.421-19.584 7.421-19.584h6.941l-12.352 31.147h-7.467zM306.731 31.573V.426h23.888v4.949h-17.187v7.424h15.512v4.949h-15.512v8.747h17.427v5.077h-24.128zM347.496 32c-8.904 0-14.267-4.309-14.267-10.709h7.661c-.096 3.627 2.584 5.632 6.605 5.632 4.261 0 6.269-1.493 6.269-3.712s-1.723-3.157-7.851-4.651c-5.6-1.365-11.728-2.987-11.728-9.387 0-5.077 4.979-9.173 12.829-9.173 8.091 0 13.261 4.053 13.261 9.771h-7.421c-.048-3.029-2.344-4.693-5.84-4.693-3.397 0-5.648 1.536-5.648 3.584 0 2.432 1.867 3.2 6.749 4.437 7.229 1.792 13.069 2.517 13.069 9.472 0 5.589-5.696 9.429-13.691 9.429zM372.099 31.573V5.504H361.52V.427h27.813v5.077h-10.531v26.069h-6.704z" style="fill:var(--color1, #fbfbfb)"/>
</symbol>
<symbol id="icon-censel" viewBox="0 0 32 32">
<path fill="none" stroke="#fbfbfb" stroke-linecap="round" stroke-linejoin="round" stroke-width="3" d="M24 8 8 24M8 8l16 16" style="stroke:var(--color1, #fbfbfb)"/>
</symbol>
</defs>
</svg>
